<?xml version="1.0" encoding="UTF-8"?>
<svg width="464px" height="100px" viewBox="0 0 464 100" version="1.1" xmlns="http://www.w3.org/2000/svg" xmlns:xlink="http://www.w3.org/1999/xlink">
    <!-- Generator: Sketch 43.1 (39012) - http://www.bohemiancoding.com/sketch -->
    <title>logo</title>
    <desc>Created with Sketch.</desc>
    <defs></defs>
    <g id="Page-1" stroke="none" stroke-width="1" fill="none" fill-rule="evenodd">
        <g id="logo" fill="#000000">
            <path d="M0,28 L9.984,28 L9.984,64.096 L28.48,64.096 L28.48,73.312 L0,73.312 L0,28 Z M37.3760002,57.76 C37.3760002,55.285321 37.8239957,53.0453434 38.7200002,51.04 C39.6160047,49.0346566 40.8426591,47.3173405 42.4000002,45.888 C43.9573413,44.4586595 45.7919897,43.3600038 47.9040002,42.592 C50.0160108,41.8239962 52.2666549,41.44 54.6560002,41.44 C57.0453455,41.44 59.2959897,41.8239962 61.4080002,42.592 C63.5200108,43.3600038 65.3546591,44.4586595 66.9120002,45.888 C68.4693413,47.3173405 69.6959957,49.0346566 70.5920002,51.04 C71.4880047,53.0453434 71.9360002,55.285321 71.9360002,57.76 C71.9360002,60.234679 71.4880047,62.4746566 70.5920002,64.48 C69.6959957,66.4853434 68.4693413,68.2026595 66.9120002,69.632 C65.3546591,71.0613405 63.5200108,72.1599962 61.4080002,72.928 C59.2959897,73.6960038 57.0453455,74.08 54.6560002,74.08 C52.2666549,74.08 50.0160108,73.6960038 47.9040002,72.928 C45.7919897,72.1599962 43.9573413,71.0613405 42.4000002,69.632 C40.8426591,68.2026595 39.6160047,66.4853434 38.7200002,64.48 C37.8239957,62.4746566 37.3760002,60.234679 37.3760002,57.76 Z M46.9760002,57.76 C46.9760002,60.1066784 47.6479935,62.0053261 48.9920002,63.456 C50.3360069,64.9066739 52.2239881,65.632 54.6560002,65.632 C57.0880124,65.632 58.9759935,64.9066739 60.3200002,63.456 C61.6640069,62.0053261 62.3360002,60.1066784 62.3360002,57.76 C62.3360002,55.4133216 61.6640069,53.5146739 60.3200002,52.064 C58.9759935,50.6133261 57.0880124,49.888 54.6560002,49.888 C52.2239881,49.888 50.3360069,50.6133261 48.9920002,52.064 C47.6479935,53.5146739 46.9760002,55.4133216 46.9760002,57.76 Z M115.968,70.688 C115.968,76.5760294 114.485349,81.0453181 111.52,84.096 C108.554652,87.1466819 104.042697,88.672 97.9840005,88.672 C95.2106533,88.672 92.4800139,88.3626698 89.7920005,87.744 C87.103987,87.1253302 84.6293451,85.920009 82.3680005,84.128 L87.6800005,76.192 C89.1733413,77.4293395 90.7413256,78.410663 92.3840005,79.136 C94.0266753,79.861337 95.829324,80.224 97.7920005,80.224 C100.736015,80.224 102.901327,79.5093405 104.288,78.08 C105.674674,76.6506595 106.368,74.8266778 106.368,72.608 L106.368,69.6 L106.24,69.6 C105.130662,71.0933408 103.754675,72.1493302 102.112,72.768 C100.469326,73.3866698 98.9226744,73.696 97.4720005,73.696 C95.1679889,73.696 93.0773432,73.3013373 91.2000005,72.512 C89.3226577,71.7226627 87.7120072,70.6133405 86.3680005,69.184 C85.0239937,67.7546595 83.9893374,66.0586765 83.2640005,64.096 C82.5386635,62.1333235 82.1760005,59.9786784 82.1760005,57.632 C82.1760005,55.5839898 82.5066638,53.5786765 83.1680005,51.616 C83.8293371,49.6533235 84.7679944,47.9253408 85.9840005,46.432 C87.2000065,44.9386592 88.6826584,43.7333379 90.4320005,42.816 C92.1813425,41.8986621 94.1653227,41.44 96.3840005,41.44 C97.7493406,41.44 98.9973281,41.5893318 100.128,41.888 C101.258673,42.1866682 102.271996,42.5706643 103.168,43.04 C104.064005,43.5093357 104.831997,44.0319971 105.472,44.608 C106.112004,45.1840029 106.623999,45.7493306 107.008,46.304 L107.136,46.304 L107.136,42.208 L115.968,42.208 L115.968,70.688 Z M91.7760005,57.568 C91.7760005,58.5920051 91.9679985,59.5626621 92.3520005,60.48 C92.7360024,61.3973379 93.2799969,62.2079965 93.9840005,62.912 C94.688004,63.6160035 95.4986625,64.1813312 96.4160005,64.608 C97.3333384,65.0346688 98.3466616,65.248 99.4560005,65.248 C100.522672,65.248 101.525329,65.0346688 102.464,64.608 C103.402672,64.1813312 104.223997,63.6160035 104.928,62.912 C105.632004,62.2079965 106.175999,61.3973379 106.56,60.48 C106.944002,59.5626621 107.136,58.5920051 107.136,57.568 C107.136,56.5439949 106.944002,55.5733379 106.56,54.656 C106.175999,53.7386621 105.632004,52.9280035 104.928,52.224 C104.223997,51.5199965 103.402672,50.9546688 102.464,50.528 C101.525329,50.1013312 100.522672,49.888 99.4560005,49.888 C98.3466616,49.888 97.3333384,50.1013312 96.4160005,50.528 C95.4986625,50.9546688 94.688004,51.5199965 93.9840005,52.224 C93.2799969,52.9280035 92.7360024,53.7386621 92.3520005,54.656 C91.9679985,55.5733379 91.7760005,56.5439949 91.7760005,57.568 Z M128.256001,57.76 C128.256001,55.285321 128.703996,53.0453434 129.600001,51.04 C130.496005,49.0346566 131.72266,47.3173405 133.280001,45.888 C134.837342,44.4586595 136.67199,43.3600038 138.784001,42.592 C140.896011,41.8239962 143.146655,41.44 145.536001,41.44 C147.925346,41.44 150.17599,41.8239962 152.288001,42.592 C154.400011,43.3600038 156.23466,44.4586595 157.792001,45.888 C159.349342,47.3173405 160.575996,49.0346566 161.472001,51.04 C162.368005,53.0453434 162.816001,55.285321 162.816001,57.76 C162.816001,60.234679 162.368005,62.4746566 161.472001,64.48 C160.575996,66.4853434 159.349342,68.2026595 157.792001,69.632 C156.23466,71.0613405 154.400011,72.1599962 152.288001,72.928 C150.17599,73.6960038 147.925346,74.08 145.536001,74.08 C143.146655,74.08 140.896011,73.6960038 138.784001,72.928 C136.67199,72.1599962 134.837342,71.0613405 133.280001,69.632 C131.72266,68.2026595 130.496005,66.4853434 129.600001,64.48 C128.703996,62.4746566 128.256001,60.234679 128.256001,57.76 Z M137.856001,57.76 C137.856001,60.1066784 138.527994,62.0053261 139.872001,63.456 C141.216007,64.9066739 143.103989,65.632 145.536001,65.632 C147.968013,65.632 149.855994,64.9066739 151.200001,63.456 C152.544007,62.0053261 153.216001,60.1066784 153.216001,57.76 C153.216001,55.4133216 152.544007,53.5146739 151.200001,52.064 C149.855994,50.6133261 147.968013,49.888 145.536001,49.888 C143.103989,49.888 141.216007,50.6133261 139.872001,52.064 C138.527994,53.5146739 137.856001,55.4133216 137.856001,57.76 Z M184.192001,36.832 L171.264001,36.832 L171.264001,28 L207.104001,28 L207.104001,36.832 L194.176001,36.832 L194.176001,73.312 L184.192001,73.312 L184.192001,36.832 Z M227.520001,78.368 C226.879998,80.0320083 226.261337,81.5039936 225.664001,82.784 C225.066665,84.0640064 224.309339,85.141329 223.392001,86.016 C222.474663,86.890671 221.312008,87.5519978 219.904001,88 C218.495994,88.4480022 216.640013,88.672 214.336001,88.672 C211.861322,88.672 209.472013,88.2880038 207.168001,87.52 L208.448001,79.648 C209.898675,80.2880032 211.391993,80.608 212.928001,80.608 C213.994673,80.608 214.869331,80.4906678 215.552001,80.256 C216.234671,80.0213322 216.799999,79.6800022 217.248001,79.232 C217.696003,78.7839978 218.069333,78.2400032 218.368001,77.6 C218.666669,76.9599968 218.986666,76.2133376 219.328001,75.36 L220.032001,73.568 L206.400001,42.208 L216.768001,42.208 L224.768001,62.752 L224.896001,62.752 L231.744001,42.208 L241.600001,42.208 L227.520001,78.368 Z M251.840001,42.208 L260.672001,42.208 L260.672001,46.304 L260.800001,46.304 C261.184003,45.7493306 261.685332,45.1840029 262.304001,44.608 C262.922671,44.0319971 263.647997,43.5093357 264.480001,43.04 C265.312006,42.5706643 266.218663,42.1866682 267.200001,41.888 C268.18134,41.5893318 269.226662,41.44 270.336001,41.44 C272.640013,41.44 274.730659,41.8346627 276.608001,42.624 C278.485344,43.4133373 280.095995,44.5226595 281.440001,45.952 C282.784008,47.3813405 283.818664,49.0773235 284.544001,51.04 C285.269338,53.0026765 285.632001,55.1573216 285.632001,57.504 C285.632001,59.6800109 285.301338,61.7599901 284.640001,63.744 C283.978665,65.7280099 283.040007,67.4879923 281.824001,69.024 C280.607995,70.5600077 279.125343,71.7866621 277.376001,72.704 C275.626659,73.6213379 273.642679,74.08 271.424001,74.08 C269.418658,74.08 267.55201,73.7706698 265.824001,73.152 C264.095993,72.5333302 262.67734,71.4773408 261.568001,69.984 L261.440001,69.984 L261.440001,87.904 L251.840001,87.904 L251.840001,42.208 Z M260.672001,57.76 C260.672001,60.1066784 261.343995,62.0053261 262.688001,63.456 C264.032008,64.9066739 265.919989,65.632 268.352001,65.632 C270.784014,65.632 272.671995,64.9066739 274.016001,63.456 C275.360008,62.0053261 276.032001,60.1066784 276.032001,57.76 C276.032001,55.4133216 275.360008,53.5146739 274.016001,52.064 C272.671995,50.6133261 270.784014,49.888 268.352001,49.888 C265.919989,49.888 264.032008,50.6133261 262.688001,52.064 C261.343995,53.5146739 260.672001,55.4133216 260.672001,57.76 Z M326.464002,67.936 C324.927994,69.8986765 322.98668,71.413328 320.640002,72.48 C318.293323,73.546672 315.861348,74.08 313.344002,74.08 C310.954656,74.08 308.704012,73.6960038 306.592002,72.928 C304.479991,72.1599962 302.645343,71.0613405 301.088002,69.632 C299.53066,68.2026595 298.304006,66.4853434 297.408002,64.48 C296.511997,62.4746566 296.064002,60.234679 296.064002,57.76 C296.064002,55.285321 296.511997,53.0453434 297.408002,51.04 C298.304006,49.0346566 299.53066,47.3173405 301.088002,45.888 C302.645343,44.4586595 304.479991,43.3600038 306.592002,42.592 C308.704012,41.8239962 310.954656,41.44 313.344002,41.44 C315.562679,41.44 317.578659,41.8239962 319.392002,42.592 C321.205344,43.3600038 322.741329,44.4586595 324.000002,45.888 C325.258675,47.3173405 326.229332,49.0346566 326.912002,51.04 C327.594672,53.0453434 327.936002,55.285321 327.936002,57.76 L327.936002,60.768 L305.664002,60.768 C306.048004,62.6026758 306.879995,64.0639946 308.160002,65.152 C309.440008,66.2400054 311.018659,66.784 312.896002,66.784 C314.474676,66.784 315.807996,66.4320035 316.896002,65.728 C317.984007,65.0239965 318.933331,64.1173389 319.744002,63.008 L326.464002,67.936 Z M318.336002,54.24 C318.378668,52.6186586 317.84534,51.2320058 316.736002,50.08 C315.626663,48.9279942 314.197344,48.352 312.448002,48.352 C311.38133,48.352 310.442672,48.522665 309.632002,48.864 C308.821331,49.205335 308.128004,49.642664 307.552002,50.176 C306.975999,50.709336 306.528003,51.3279965 306.208002,52.032 C305.888,52.7360035 305.706668,53.4719962 305.664002,54.24 L318.336002,54.24 Z" id="LogoType"></path>
        </g>
    </g>
</svg>